# xmcd
#
# Track frame offsets:
# 150
# 3152
# 19462
# 28250
# 44571
# 61599
# 78537
# 88953
# 102500
# 118171
# 128692
# 144666
# 155466
# 171389
# 182014
# 203280
# 215005
# 231700
# 246042
# 254347
# 267688
#
# Disc length: 3753 seconds
#
#
# Revision: 0
# Processed by: cddbd v1.4PL0 Copyright (c) Steve Scherf et al.
# Submitted via: FreeRIP 2.00 
#
DISCID=380ea715
DTITLE=a
DYEAR=1900
DGENRE=Anime
TTITLE0=Track-01
TTITLE1=Track-02
TTITLE2=Track-03
TTITLE3=Track-04
TTITLE4=Track-05
TTITLE5=Track-06
TTITLE6=Track-07
TTITLE7=Track-08
TTITLE8=Track-09
TTITLE9=Track-10
TTITLE10=Track-11
TTITLE11=Track-12
TTITLE12=Track-13
TTITLE13=Track-14
TTITLE14=Track-15
TTITLE15=Track-16
TTITLE16=Track-17
TTITLE17=Track-18
TTITLE18=Track-19
TTITLE19=Track-20
TTITLE20=Track-21
EXTD=
EXTT0=
EXTT1=
EXTT2=
EXTT3=
EXTT4=
EXTT5=
EXTT6=
EXTT7=
EXTT8=
EXTT9=
EXTT10=
EXTT11=
EXTT12=
EXTT13=
EXTT14=
EXTT15=
EXTT16=
EXTT17=
EXTT18=
EXTT19=
EXTT20=
PLAYORDER=
